<svg width="794" height="390" viewBox="0 0 794 390" fill="none" xmlns="http://www.w3.org/2000/svg">
<path d="M104.2 267.432H50.4C38.2667 267.432 29.2667 264.899 23.4 259.832C17.5333 254.632 14.6 246.565 14.6 235.632V140.832C14.6 129.765 17.5333 121.699 23.4 116.632C29.2667 111.432 38.2667 108.832 50.4 108.832H104.2V131.432H43C41.1333 131.432 40.2 132.365 40.2 134.232V242.232C40.2 243.965 41.1333 244.832 43 244.832H104.2V267.432ZM307.564 314.832V145.032H328.964L331.164 159.032C332.231 153.832 334.497 149.899 337.964 147.232C341.564 144.565 346.631 143.232 353.164 143.232H367.164C377.297 143.232 384.697 145.232 389.364 149.232C394.031 153.232 396.364 160.299 396.364 170.432V239.432C396.364 250.232 393.897 257.699 388.964 261.832C384.164 265.965 376.031 268.032 364.564 268.032L331.764 267.632V314.832H307.564ZM331.764 165.632V247.832L369.564 248.232C371.297 248.232 372.164 247.365 372.164 245.632V165.632C372.164 163.765 371.297 162.832 369.564 162.832H334.564C332.697 162.832 331.764 163.765 331.764 165.632ZM492.645 173.632C492.645 162.565 495.312 154.765 500.645 150.232C505.979 145.565 514.712 143.232 526.845 143.232H548.645C560.912 143.232 569.712 145.565 575.045 150.232C580.379 154.765 583.045 162.565 583.045 173.632V238.832C583.045 249.899 580.379 257.765 575.045 262.432C569.712 266.965 560.912 269.232 548.645 269.232H526.845C514.712 269.232 505.979 266.965 500.645 262.432C495.312 257.765 492.645 249.899 492.645 238.832V173.632ZM519.845 163.432C517.979 163.432 517.045 164.365 517.045 166.232V246.232C517.045 248.099 517.979 249.032 519.845 249.032H556.045C557.779 249.032 558.645 248.099 558.645 246.232V166.232C558.645 164.365 557.779 163.432 556.045 163.432H519.845Z" fill="url(#paint0_linear_27_23)"/>
<path d="M179.589 143.232V162.832H149.389C147.522 162.832 146.589 163.765 146.589 165.632L146.789 267.432H122.789L122.389 145.032H143.989L145.789 157.432C148.456 147.965 155.856 143.232 167.989 143.232H179.589Z" fill="url(#paint1_linear_27_23)"/>
<path d="M255.297 293.632V256.432C252.497 264.965 245.364 269.232 233.897 269.232H219.697C209.697 269.232 202.364 267.299 197.697 263.432C193.03 259.432 190.697 252.365 190.697 242.232V145.032H214.897V246.832C214.897 248.699 215.83 249.632 217.697 249.632H255.297L255.097 145.032H279.297L279.497 286.232C279.497 297.299 276.764 305.165 271.297 309.832C265.964 314.499 257.297 316.832 245.297 316.832H194.697V296.432H252.697C254.43 296.432 255.297 295.499 255.297 293.632Z" fill="url(#paint2_linear_27_23)"/>
<path d="M480.222 164.032H451.622V244.432C451.622 246.165 452.489 247.032 454.222 247.032H480.222V267.432H461.622C449.622 267.432 440.889 265.099 435.422 260.432C430.089 255.765 427.422 247.965 427.422 237.032V164.032H413.022V145.032H427.422V113.832H451.622V145.032H480.222V164.032Z" fill="url(#paint3_linear_27_23)"/>
<path d="M790.608 313L711.033 202.899L784.868 101.668H743.907L689.117 177.852H687.812L633.283 101.668H593.626L667.462 202.377L587.886 313H629.892L689.378 228.989H690.421L750.429 313H790.608Z" fill="url(#paint4_radial_27_23)"/>
<defs>
<linearGradient id="paint0_linear_27_23" x1="368" y1="118.137" x2="368" y2="334.48" gradientUnits="userSpaceOnUse">
<stop stop-color="#155DFC"/>
<stop offset="0.485576" stop-color="#155DFC"/>
<stop offset="1" stop-color="#155DFC"/>
</linearGradient>
<linearGradient id="paint1_linear_27_23" x1="368" y1="118.137" x2="368" y2="334.48" gradientUnits="userSpaceOnUse">
<stop offset="0.124999" stop-color="#155DFC"/>
<stop offset="1" stop-color="#155DFC"/>
</linearGradient>
<linearGradient id="paint2_linear_27_23" x1="368" y1="118.137" x2="368" y2="334.48" gradientUnits="userSpaceOnUse">
<stop offset="0.370192" stop-color="#155DFC"/>
<stop offset="1" stop-color="#155DFC"/>
</linearGradient>
<linearGradient id="paint3_linear_27_23" x1="368" y1="118.137" x2="368" y2="334.48" gradientUnits="userSpaceOnUse">
<stop stop-color="#155DFC"/>
<stop offset="0.687499" stop-color="#155DFC"/>
</linearGradient>
<radialGradient id="paint4_radial_27_23" cx="0" cy="0" r="1" gradientUnits="userSpaceOnUse" gradientTransform="translate(687.517 213.168) rotate(90) scale(148.571 81.5238)">
<stop offset="0.975961" stop-color="#155DFC"/>
</radialGradient>
</defs>
</svg>
